<svg xmlns="http://www.w3.org/2000/svg" viewBox="0 0 286.3 301"><defs><style>.cls-1{fill:#662c8c;}</style></defs><g id="Layer_2" data-name="Layer 2"><g id="Layer_1-2" data-name="Layer 1"><path class="cls-1" d="M55,301h52.08l1.15-15a3.43,3.43,0,0,0-3.42-3.68H59.6a3.42,3.42,0,0,0-3.41,3.16Z"/><path class="cls-1" d="M24.71,221.08H.71v31.55H22.84a3.42,3.42,0,0,0,3.41-3.17l1.88-24.7A3.43,3.43,0,0,0,24.71,221.08Z"/><path class="cls-1" d="M263.93,65.22H22.37A22.43,22.43,0,0,0,0,87.59v103H27.54a2.64,2.64,0,0,0,2.63-2.44l2.35-30.87a3,3,0,0,1,2-2.63,3,3,0,0,1,1.64-.48H59.69a2.9,2.9,0,0,1,1.18.24,2.64,2.64,0,0,1,.49,0l1.54.12A2.24,2.24,0,0,1,65,157l-2.41,31.87a2.63,2.63,0,0,0,2.62,2.84h48a2.64,2.64,0,0,0,2.63-2.44l2.34-30.87a3,3,0,0,1,2.13-2.66,2.9,2.9,0,0,1,1.22-.26H145a2.88,2.88,0,0,1,.93.16,3.13,3.13,0,0,1,.69,0l1.55.12a2.24,2.24,0,0,1,2.06,2.41l-2.52,33.26a.3.3,0,0,0,.29.32h19.26a3,3,0,0,1,3,2.63,1.23,1.23,0,0,1,0,.19,1.49,1.49,0,0,1,0,.21v.76a3,3,0,0,1-.1.74L168.6,217a2.71,2.71,0,0,1-.17.76.47.47,0,0,0,0,.17v1.26a2.24,2.24,0,0,1-2.24,2.25h-18.3a2.63,2.63,0,0,0-2.63,2.44l-1.88,24.72a2.64,2.64,0,0,0,2.63,2.83h26l.14,0h.22l1.55.12A2.25,2.25,0,0,1,176,254l-1.73,22.82a2.57,2.57,0,0,1-.08.4,2,2,0,0,1,0,.24V279a2.24,2.24,0,0,1-2.25,2.24h-28.7a2.44,2.44,0,0,0-2.43,2.26L139.49,301H263.93a22.43,22.43,0,0,0,22.37-22.37v-191A22.43,22.43,0,0,0,263.93,65.22ZM248.08,201.54a19.61,19.61,0,0,1-25-25A18.65,18.65,0,0,1,235,164.67a19.61,19.61,0,0,1,25,25A18.66,18.66,0,0,1,248.08,201.54Z"/><path class="cls-1" d="M137.37,274.59a2.94,2.94,0,0,1,.94-.16H166a2.47,2.47,0,0,0,2.46-2.28l.85-11.21a2.46,2.46,0,0,0-2.45-2.65H140.19a3.76,3.76,0,0,1-3.43-3.65l2.76-36.47v-1.46a2.07,2.07,0,0,1,2.07-2.07h18.08a3.21,3.21,0,0,0,3.2-3l.81-10.67a2.33,2.33,0,0,0-2.32-2.5H144.44a2.83,2.83,0,0,1-1-.18h0l-.29-.11a3,3,0,0,1-1.88-3l2.29-30.27a2.46,2.46,0,0,0-2.45-2.65H127.66a2.46,2.46,0,0,0-2.45,2.28l-2.44,32.11a2.07,2.07,0,0,1-2.22,1.91l-1.08-.08-.18,0H57.9a2.07,2.07,0,0,1-2.06-2.07v-1.73a3.18,3.18,0,0,1,.21-1.12l2.27-29.9A2.46,2.46,0,0,0,55.87,161H42.07a2.47,2.47,0,0,0-2.46,2.28l-2.37,31.34a3,3,0,0,1-2.93,2.79l-.17,0H.71v16.78H32.19a2.91,2.91,0,0,1,.89.15,3,3,0,0,1,2.44,3.19L32.61,255.9a2.77,2.77,0,0,1-.21.87,3,3,0,0,1-3,2.69H.71v16H27.36a3,3,0,0,1,3,2.64,1.1,1.1,0,0,1,0,.18,1.49,1.49,0,0,1,0,.21v.77a3.07,3.07,0,0,1-.1.74L28.7,301H48.15l1.62-21.11h0V277a1.47,1.47,0,0,1,1.47-1.48h63a1.48,1.48,0,0,1,1.48,1.48v2.91a2.41,2.41,0,0,1-.21,1L113.93,301h19.42l1.8-23.73A3,3,0,0,1,137.37,274.59Zm-16.53-55a2.44,2.44,0,0,1-.22,1L117.9,256v.16s0,.06,0,.09l0,.5a1.07,1.07,0,0,1-.13.31.43.43,0,0,1,0,.12,1.53,1.53,0,0,1-.17.27,2.49,2.49,0,0,1-2.1,1.21h-62a1.54,1.54,0,0,1-1.54-1.54v-2.77a2.44,2.44,0,0,1,.16-.82l2.83-36.86c.06-.82,1.09-1.4,2.34-1.4l.11,0h62a1.55,1.55,0,0,1,1.55,1.55Z"/><path class="cls-1" d="M1.15,282.32a23.24,23.24,0,0,0,20.71,18.57L23,286.17a3.58,3.58,0,0,0-3.57-3.85Z"/><path class="cls-1" d="M111.6,248.9l1.83-23.79a2.78,2.78,0,0,0-2.77-3H63.89a2.77,2.77,0,0,0-2.76,2.56l-1.9,24.77a2.25,2.25,0,0,0,2.24,2.43h46.92A3.23,3.23,0,0,0,111.6,248.9Z"/><path class="cls-1" d="M117.9,256.2v.09S117.9,256.23,117.9,256.2Z"/><path class="cls-1" d="M117.85,256.79l0-.5a2.65,2.65,0,0,1-.17.81A1.07,1.07,0,0,0,117.85,256.79Z"/><path class="cls-1" d="M30.29,280a3.07,3.07,0,0,0,.1-.74v-.77a1.49,1.49,0,0,0,0-.21,2.09,2.09,0,0,1,0,.5Z"/><path class="cls-1" d="M30.35,278.13a1.1,1.1,0,0,1,0,.18A1.1,1.1,0,0,0,30.35,278.13Z"/><path class="cls-1" d="M143.47,198.33h0Z"/><path class="cls-1" d="M143.44,198.32l-.29-.11Z"/><path class="cls-1" d="M170.89,196.21a3,3,0,0,0,.1-.74v-.76c0-.07,0-.14,0-.21a4.13,4.13,0,0,1,0,.5Z"/><path class="cls-1" d="M171,194.31c0,.06,0,.13,0,.19S171,194.37,171,194.31Z"/><path class="cls-1" d="M245.28,3.46C239.73-1.69,232.94-.1,224.39,1.9a54.84,54.84,0,0,0-8.61,2.79C107.86,36.58,29.39,59.43,24.47,61.2L21,62.45a27.22,27.22,0,0,0-9.1,5.89,41.1,41.1,0,0,0-9.31,14c-.06.13-.12.4-.29.76A53.36,53.36,0,0,0,1.19,92.9c.2-.42,1.88-8,2.31-8.59.58-.86.72-1.82,1.07-2.18,1.44-1.46,2.16-2.19,3.06-3a37.08,37.08,0,0,1,5-3.88c.69-.44,1.43-.86,2.9-1.69s2.1-1.2,2.6-1.43A39.57,39.57,0,0,1,22,70.8,20,20,0,0,1,25,70.08l.44-.06a15.84,15.84,0,0,1,3.06-.12c1.3.06,89.92-.63,223-1.72v-2H49.13S43,64.75,49,63L251.46,49.15V14.51C249.48,7.94,246.81,4.87,245.28,3.46Z"/></g></g></svg>